<svg id="Layer_1" data-name="Layer 1" xmlns="http://www.w3.org/2000/svg" viewBox="0 0 113.18 129.84"><defs><style>.cls-1{fill:#353533;}.cls-2{fill:#ede4db;}.cls-3{fill:#d2c6bd;}.cls-4{fill:#5e5f5c;}.cls-5{fill:#fff;}.cls-6{fill:#3d3d3e;}</style></defs><title>nutria</title><path class="cls-1" d="M106.76,32a108.39,108.39,0,0,1,2.58,18.11c.63-.08.93-.58,1.32-.92,4.25-3.74,8.37-7.65,13.23-10.64a2.3,2.3,0,0,1,3.59.87c.27.49.22.81-.24,1-2.77,1.1-3.51,3.65-4.68,6-3.78,7.73-7.74,15.37-11.72,23a9.84,9.84,0,0,0-1.22,4.71A72.5,72.5,0,0,1,107.85,91,38,38,0,0,1,95.7,111.15c-4.93,4.37-9.84,8.77-15,12.87a13.78,13.78,0,0,0-3,3.92c-1.29,2.13-2.49,4.31-3.87,6.38s-2.63,2.37-4.84.85c-2.77-1.91-4.14-4.86-5.72-7.82a36,36,0,0,1-7,2.56A30.91,30.91,0,0,1,38,128.54c-3.15-1.2-6.31-2.28-9-4.44-5.14-4.14-8.44-9.55-11-15.5a49.55,49.55,0,0,1-3.15-9.41A19,19,0,0,1,15.25,90a3.09,3.09,0,0,1,1.4-2A1.31,1.31,0,0,1,18,87.92c.51.28.19.74.2,1.12.14,10.31,3.5,19.21,11.93,25.54,4.86,3.65,10.56,4.19,16.44,2.8a2.45,2.45,0,0,0,2.5-1.2,16.47,16.47,0,0,1,2.7-2.71l.25.27c-.64,1.16-1.84,1.85-2.69,3.11a34.54,34.54,0,0,0,5.48-1.92c.32-.13.59-.22.59-.63.45.17.81-.09,1.16-.28A37.32,37.32,0,0,0,71.3,99.65c.08,0,.2-.05.24-.11a49.56,49.56,0,0,0,4.35-10.23c.26-1,.67-1.34,1.63-1,.72,1.42,2.1,2.16,3.24,3.14a1.47,1.47,0,0,0,1.45.16,4.13,4.13,0,0,0,1.91-.16c3-.82,5.14-2.81,7-5.15A41,41,0,0,0,97.72,73c3.88-12.19,5-24.8,5.53-37.48C103.34,33.47,104.53,32.22,106.76,32Zm-33.95,97.6.27-.29.1,0s0,0,0-.08l-.12.13-.29.26-.28.27A3.74,3.74,0,0,0,70,132.47a6.72,6.72,0,0,0,2.55-2.63Zm-1.67-2.23c.1-.06.38.13.29-.2l-.28.21-.29.26a4.83,4.83,0,0,0-3.15,2.32,6.88,6.88,0,0,0,3.16-2.3Zm6.52-11.55c-2.62,2.54-5.31,5-8,7.46C73.08,121.55,76.16,119.52,77.66,115.78ZM66,126.9a5.12,5.12,0,0,0,3.24-1.36A5.09,5.09,0,0,0,66,126.9Zm4-1.71s-.07,0-.09.06a.18.18,0,0,0,0,.08l.14-.1Z" transform="translate(-14.46 -6.33)"/><path class="cls-2" d="M82.21,91.6a1.47,1.47,0,0,1-1.45-.16c-1.14-1-2.52-1.72-3.24-3.14-.16-1.45-.56-2.87-.59-4.35-.17-7.15,1-14.16,2.23-21.17,1.58,1.1,3.2,2.15,4.73,3.32A3.69,3.69,0,0,1,85.38,70a10.15,10.15,0,0,0-.14,3.16,1.59,1.59,0,0,0,1.11,1.58c.82.24,1.3-.28,1.69-.88a23.36,23.36,0,0,0,2.58-6.37,7.19,7.19,0,0,0,0-4.06,27.85,27.85,0,0,0-5.76-10.87,19.33,19.33,0,0,1-3.2-4.11c1.23-4.82,2-9.72,3.08-14.57.34-1.51.17-2.66-1.3-3.46a7,7,0,0,1-1.23-1.09,13.46,13.46,0,0,1-3.46-11c.1-.78,0-1-.78-1.24a3.32,3.32,0,0,1-2.37-3.72A3.07,3.07,0,0,1,79,10.54a7,7,0,0,0,4.79-1.42C87.07,6.73,91,6.21,95,6.37A15.45,15.45,0,0,0,95,8.3c.55,3.66.77,7.36,1,11a3.13,3.13,0,0,0-1.86.76c-.73.55-1.27,1.39-2.27,1.55-2.8-.31-5.31.18-6.67,1.36a11.37,11.37,0,0,1,2.47-.66l.1,1,0,0a.54.54,0,0,0-.62.27l-.75.67c0,1.14,0,2.29-.08,3.43a2.2,2.2,0,0,0,1.79,2.41,7.72,7.72,0,0,0,7.45-2.52l.74.13c.12,2.3-.25,4.59-.25,6.88a95.75,95.75,0,0,1-.64,9.74,139.92,139.92,0,0,1-2.16,14.1,137.22,137.22,0,0,1-8.53,27.42C83.9,87.75,82.67,89.51,82.21,91.6Zm-.4-66,.27-.28.3-.28c.09-.12.29-.23.05-.37,0,0-.16.12-.24.19l-.28.28-.28.28-.27.28c-.2.06-.32.23-.17.37s.26-.1.37-.19Zm1.11-1.39c-.1.1-.33.18-.1.36,0,0,.18-.12.27-.19s.23-.21.22-.22C83.16,24,83,24.12,82.92,24.23Zm1.66-1.11c-.17.14-.65.08-.44.43.12.19.46,0,.61-.26l.26-.21C84.85,22.89,84.71,23,84.58,23.12Zm2.35-7.67a1.24,1.24,0,0,0-.49,2.1,1.27,1.27,0,0,0,2.17-.06,1.22,1.22,0,0,0,0-1.73A1.15,1.15,0,0,0,86.93,15.45ZM81,11.18c-2.37-.11-3.49.54-3.87,2.1a2.87,2.87,0,0,0,1.79,3.41A13.82,13.82,0,0,1,81,11.18Zm10.24,9.39a6.13,6.13,0,0,0-4.18,0A41.6,41.6,0,0,1,91.24,20.57Z" transform="translate(-14.46 -6.33)"/><path class="cls-3" d="M82.21,91.6c.46-2.09,1.69-3.85,2.54-5.78A137.22,137.22,0,0,0,93.28,58.4a139.92,139.92,0,0,0,2.16-14.1,95.75,95.75,0,0,0,.64-9.74c0-2.29.37-4.58.25-6.88l.67,0c2,1.68,4.39,1.84,6.84,1.68a2.16,2.16,0,0,0,2.21-2.26,25.43,25.43,0,0,0-.31-4.09l.71.12c.13.1.26.21.4,0a1.85,1.85,0,0,0-.23-.21c-.52-.31-1-.79-1.69-.52l-.34,0c0-.3.11-.65-.26-.84s-.79-.31-.8-.84c1.45-.2,2.72.56,4.12.68-2.1-.91-4.21-1.7-6.57-1a6.32,6.32,0,0,0-2.42.58l-2-1.39-.56-.31c-.27-3.68-.49-7.38-1-11A15.45,15.45,0,0,1,95,6.37c4-.11,8.07-.17,11.72,1.71,2.37,1.23,4.49,2.6,7.39,2.31,1.37-.14,2.77,2.06,2.71,3.52a3.88,3.88,0,0,1-3.09,3.41c-.06,0-.13-.12-.2-.18,1.74-1.28,2.27-2.73,1.52-4.2s-2.15-1.85-4-1.35a13.82,13.82,0,0,1,1.68,5.64c-.06,2.76.43,5.58-.86,8.22a6.39,6.39,0,0,1-1.9,2.79,1,1,0,0,1-.24,0c-.06-.25-.32-.61-.43-.51-.32.3.12.47.26.7l.25.56a16.7,16.7,0,0,0-3,3c-2.23.26-3.42,1.51-3.51,3.55C102.71,48.19,101.6,60.8,97.72,73a41,41,0,0,1-6.6,13.3c-1.86,2.34-4,4.33-7,5.15A4.13,4.13,0,0,1,82.21,91.6Zm27.57-66,.26.3c.1.11.18.36.36.19s0-.31-.18-.38l-.27-.28-.27-.28-.28-.27-.29-.26-.44-.4-.66-.45c-.25-.24-.47-.58-1.05-.35l.86.53.66.47.44.39.3.25.28.26Zm.72-2.38c-.09-.06-.23-.19-.26-.17-.23.16,0,.24.08.35s.21.29.37.07C110.71,23.43,110.57,23.29,110.5,23.2Zm-1.29-.66c.22.15.39.59.69.27.1-.11-.25-.37-.51-.44a2.1,2.1,0,0,0-1-.64c-.13-.1-.26-.21-.4,0l.23.21Zm-.55,4.72c.11.08.19.31.35.08,0,0-.11-.17-.17-.26a3.36,3.36,0,0,0-1.68-1.42ZM102.47,15.8a1.24,1.24,0,0,0,.21,2,1.26,1.26,0,0,0,2-.32,1.26,1.26,0,0,0-.26-1.92A1.23,1.23,0,0,0,102.47,15.8Z" transform="translate(-14.46 -6.33)"/><path class="cls-4" d="M79.16,62.78c-1.24,7-2.4,14-2.23,21.17,0,1.48.43,2.9.59,4.35-1-.33-1.37,0-1.63,1a49.56,49.56,0,0,1-4.35,10.23c0,.06-.16.07-.24.11-.74-.06-1.16.5-1.66.87a128.92,128.92,0,0,0-10.87,9.34,14.12,14.12,0,0,0-3.4,4.44c0,.41-.27.5-.59.63a34.54,34.54,0,0,1-5.48,1.92c.85-1.26,2.05-1.95,2.69-3.11l-.25-.27a16.47,16.47,0,0,0-2.7,2.71,2.45,2.45,0,0,1-2.5,1.2,23.52,23.52,0,0,1-3-4.43c-1.49-2.46-.89-4,2-4.62a18.58,18.58,0,0,0,7.78-4,10.6,10.6,0,0,0,3.41-4.55C60.22,90.72,65,82.15,68.49,73.06c1.75-4.5,3.42-9,5.12-13.55.15-.38.33-.75.49-1.13A49.23,49.23,0,0,0,79.16,62.78Zm-29.65,49.3a4,4,0,0,0-2.88,2,5,5,0,0,0,2.95-2c.2,0,.43-.08.41-.37,0,0-.05-.08-.09-.09C49.62,111.66,49.57,111.87,49.51,112.08Zm-.46-2.6a13.05,13.05,0,0,0-4,1.29c-.19.11-.41.24-.36.52s.24.27.42.21A12.54,12.54,0,0,0,49.05,109.48Z" transform="translate(-14.46 -6.33)"/><path class="cls-1" d="M79.16,62.78a49.23,49.23,0,0,1-5.06-4.4c.05-4.77,2.2-8.87,4.16-13,.69,0,1,.57,1.39,1a8.55,8.55,0,0,0,2,2.06,19.33,19.33,0,0,0,3.2,4.11,27.85,27.85,0,0,1,5.76,10.87,7.19,7.19,0,0,1,0,4.06A23.36,23.36,0,0,1,88,73.86c-.39.6-.87,1.12-1.69.88a1.59,1.59,0,0,1-1.11-1.58A10.15,10.15,0,0,1,85.38,70a3.69,3.69,0,0,0-1.49-3.9C82.36,64.93,80.74,63.88,79.16,62.78Z" transform="translate(-14.46 -6.33)"/><path class="cls-4" d="M81.66,48.45a8.55,8.55,0,0,1-2-2.06c-.35-.47-.7-1-1.39-1,1.45-5.31,3-10.6,3.95-16a7,7,0,0,0,1.23,1.09c1.47.8,1.64,1.95,1.3,3.46C83.66,38.73,82.89,43.63,81.66,48.45Z" transform="translate(-14.46 -6.33)"/><path class="cls-1" d="M112.66,17.23A13.82,13.82,0,0,0,111,11.59c1.88-.5,3.35,0,4,1.35s.22,2.92-1.52,4.2Z" transform="translate(-14.46 -6.33)"/><path class="cls-4" d="M109.66,28.19a1,1,0,0,0,.24,0c-.11.22.65.64-.16.7l-.25-.56A1.54,1.54,0,0,0,109.66,28.19Z" transform="translate(-14.46 -6.33)"/><path class="cls-5" d="M55.37,114.3a14.12,14.12,0,0,1,3.4-4.44,128.92,128.92,0,0,1,10.87-9.34c.5-.37.92-.93,1.66-.87A37.32,37.32,0,0,1,56.53,114C56.18,114.21,55.82,114.47,55.37,114.3Z" transform="translate(-14.46 -6.33)"/><path class="cls-2" d="M77.66,115.78c-1.5,3.74-4.58,5.77-8,7.46C72.35,120.77,75,118.32,77.66,115.78Z" transform="translate(-14.46 -6.33)"/><path class="cls-4" d="M70.87,127.62a6.88,6.88,0,0,1-3.16,2.3,4.83,4.83,0,0,1,3.15-2.32Z" transform="translate(-14.46 -6.33)"/><path class="cls-4" d="M72.54,129.84A6.72,6.72,0,0,1,70,132.47a3.74,3.74,0,0,1,2.52-2.66Z" transform="translate(-14.46 -6.33)"/><path class="cls-4" d="M66,126.9a5.09,5.09,0,0,1,3.24-1.36A5.12,5.12,0,0,1,66,126.9Z" transform="translate(-14.46 -6.33)"/><path class="cls-4" d="M70,125.19l.1,0-.14.1a.18.18,0,0,1,0-.08S70,125.21,70,125.19Z" transform="translate(-14.46 -6.33)"/><path class="cls-4" d="M71.15,127.34l.28-.21c.09.33-.19.14-.29.2Z" transform="translate(-14.46 -6.33)"/><path class="cls-4" d="M73.08,129.28l.12-.13s0,.06,0,.08l-.1,0Z" transform="translate(-14.46 -6.33)"/><path class="cls-4" d="M72.79,129.54l.29-.26h0l-.27.29Z" transform="translate(-14.46 -6.33)"/><path class="cls-4" d="M72.51,129.81l.28-.27,0,0-.27.28Z" transform="translate(-14.46 -6.33)"/><path class="cls-4" d="M70.86,127.6l.29-.26h0l-.27.29Z" transform="translate(-14.46 -6.33)"/><path class="cls-5" d="M95.59,27.55a7.72,7.72,0,0,1-7.45,2.52,2.2,2.2,0,0,1-1.79-2.41c.08-1.14.06-2.29.08-3.43C87.66,24,88.73,23.28,90,23c-.79-.22-1.43.23-2.14.31l-.1-1c1.34-.65,2.77-.45,4.18-.48,0,.48-.91.59-.34,1.35.44.58.8.93,1.51.9.92,0,1.83,0,2.74-.05C96.36,25.27,96,26.41,95.59,27.55Z" transform="translate(-14.46 -6.33)"/><path class="cls-1" d="M95.81,24.07c-.91,0-1.82,0-2.74.05-.71,0-1.07-.32-1.51-.9-.57-.76.38-.87.34-1.35a.24.24,0,0,0,0-.22c1-.16,1.54-1,2.27-1.55a3.13,3.13,0,0,1,1.86-.76l.56.31c-1.06,1.08-.42,2.4-.48,3.62C96.11,23.61,96.41,24,95.81,24.07Z" transform="translate(-14.46 -6.33)"/><path class="cls-6" d="M95.81,24.07c.6-.08.3-.46.32-.8.06-1.22-.58-2.54.48-3.62l2,1.39c-.06.19.08.22.21.26l.23.18.55.15a.52.52,0,0,0,0,.25c.62,1.68.27,2.21-1.46,2.23a6.28,6.28,0,0,1-1,0c-.76-.09-1,.27-.86,1,.19.87.42,1.74.63,2.6l-.67,0-.74-.13C96,26.41,96.36,25.27,95.81,24.07Z" transform="translate(-14.46 -6.33)"/><path class="cls-1" d="M81,11.18a13.82,13.82,0,0,0-2.08,5.51,2.87,2.87,0,0,1-1.79-3.41C77.51,11.72,78.63,11.07,81,11.18Z" transform="translate(-14.46 -6.33)"/><path class="cls-6" d="M86.93,15.45a1.15,1.15,0,0,1,1.68.31,1.22,1.22,0,0,1,0,1.73C87.79,17,86.62,16.85,86.93,15.45Z" transform="translate(-14.46 -6.33)"/><path class="cls-1" d="M86.93,15.45c-.31,1.4.86,1.58,1.68,2a1.27,1.27,0,0,1-2.17.06A1.24,1.24,0,0,1,86.93,15.45Z" transform="translate(-14.46 -6.33)"/><path class="cls-4" d="M91.92,21.65a.24.24,0,0,1,0,.22c-1.41,0-2.84-.17-4.18.48a11.37,11.37,0,0,0-2.47.66C86.61,21.83,89.12,21.34,91.92,21.65Z" transform="translate(-14.46 -6.33)"/><path class="cls-4" d="M91.24,20.57a41.6,41.6,0,0,0-4.18,0A6.13,6.13,0,0,1,91.24,20.57Z" transform="translate(-14.46 -6.33)"/><path class="cls-4" d="M87.82,23.32c.71-.08,1.35-.53,2.14-.31-1.23.27-2.3,1-3.53,1.22l.75-.67c.23,0,.49,0,.62-.27Z" transform="translate(-14.46 -6.33)"/><path class="cls-4" d="M84.75,23.29c-.15.24-.49.45-.61.26-.21-.35.27-.29.44-.43A1.37,1.37,0,0,0,84.75,23.29Z" transform="translate(-14.46 -6.33)"/><path class="cls-5" d="M87.8,23.29c-.13.26-.39.23-.62.27A.54.54,0,0,1,87.8,23.29Z" transform="translate(-14.46 -6.33)"/><path class="cls-4" d="M81.56,25.9c-.11.09-.2.34-.37.19s0-.31.17-.37Z" transform="translate(-14.46 -6.33)"/><path class="cls-4" d="M83.09,24.4c-.09.07-.24.21-.27.19-.23-.18,0-.26.1-.36C83,24.29,83,24.34,83.09,24.4Z" transform="translate(-14.46 -6.33)"/><path class="cls-4" d="M82.92,24.23c.12-.11.24-.26.39-.05,0,0-.15.14-.22.22S83,24.29,82.92,24.23Z" transform="translate(-14.46 -6.33)"/><path class="cls-4" d="M84.58,23.12c.13-.11.27-.23.43,0l-.26.21A1.37,1.37,0,0,1,84.58,23.12Z" transform="translate(-14.46 -6.33)"/><path class="cls-4" d="M82.38,25.06l-.3.28-.17-.18.28-.28A1.62,1.62,0,0,0,82.38,25.06Z" transform="translate(-14.46 -6.33)"/><path class="cls-4" d="M81.63,25.44l.28-.28.17.18-.27.28C81.75,25.56,81.69,25.49,81.63,25.44Z" transform="translate(-14.46 -6.33)"/><path class="cls-4" d="M81.36,25.72l.27-.28c.06,0,.12.12.18.18s-.17.18-.25.28Z" transform="translate(-14.46 -6.33)"/><path class="cls-4" d="M82.19,24.88c.08-.07.21-.21.24-.19.24.14,0,.25-.05.37A1.62,1.62,0,0,1,82.19,24.88Z" transform="translate(-14.46 -6.33)"/><path class="cls-5" d="M99.65,21.63l-.55-.15-.23-.18c-.13,0-.27-.07-.21-.26a6.32,6.32,0,0,1,2.42-.58c.75.63,1.64.13,2.45.31,0,.53.48.61.8.84-.08.24-.51.27-.41.59s.43.2.67.25l.34,0,.81.58a25.43,25.43,0,0,1,.31,4.09,2.16,2.16,0,0,1-2.21,2.26c-2.45.16-4.83,0-6.84-1.68-.21-.86-.44-1.73-.63-2.6-.15-.69.1-1,.86-1a6.28,6.28,0,0,0,1,0c1.73,0,2.08-.55,1.46-2.23,1.25-.3,2.48.49,3.73,0A7.79,7.79,0,0,0,99.65,21.63ZM101.37,23l3,.89A3.91,3.91,0,0,0,101.37,23Z" transform="translate(-14.46 -6.33)"/><path class="cls-6" d="M102.47,15.8a1.23,1.23,0,0,1,1.92-.26,1.26,1.26,0,0,1,.26,1.92A3.82,3.82,0,0,1,102.47,15.8Z" transform="translate(-14.46 -6.33)"/><path class="cls-4" d="M103.53,20.77c-.81-.18-1.7.32-2.45-.31,2.36-.71,4.47.08,6.57,1C106.25,21.33,105,20.57,103.53,20.77Z" transform="translate(-14.46 -6.33)"/><path class="cls-1" d="M102.47,15.8a3.82,3.82,0,0,0,2.18,1.66,1.26,1.26,0,0,1-2,.32A1.24,1.24,0,0,1,102.47,15.8Z" transform="translate(-14.46 -6.33)"/><path class="cls-4" d="M108.66,27.26l-1.5-1.6a3.36,3.36,0,0,1,1.68,1.42Z" transform="translate(-14.46 -6.33)"/><path class="cls-4" d="M105.74,23l-.81-.58c.7-.27,1.17.21,1.69.52l-.17.18Z" transform="translate(-14.46 -6.33)"/><path class="cls-2" d="M104.59,22.45c-.24-.05-.57.06-.67-.25s.33-.35.41-.59C104.7,21.8,104.56,22.15,104.59,22.45Z" transform="translate(-14.46 -6.33)"/><path class="cls-4" d="M109.21,22.55l-1-.63a1.54,1.54,0,0,0,.17-.19,2.1,2.1,0,0,1,1,.64Z" transform="translate(-14.46 -6.33)"/><path class="cls-4" d="M107.82,23.93,107,23.4c.58-.23.8.11,1.05.35Z" transform="translate(-14.46 -6.33)"/><path class="cls-4" d="M109.39,22.37c.26.07.61.33.51.44-.3.32-.47-.12-.69-.26Z" transform="translate(-14.46 -6.33)"/><path class="cls-4" d="M109.49,28.38c-.14-.23-.58-.4-.26-.7.11-.1.37.26.43.51A1.54,1.54,0,0,1,109.49,28.38Z" transform="translate(-14.46 -6.33)"/><path class="cls-4" d="M108.48,24.4l-.66-.47.19-.18.66.45A1.21,1.21,0,0,0,108.48,24.4Z" transform="translate(-14.46 -6.33)"/><path class="cls-4" d="M108.92,24.79l-.44-.39a1.21,1.21,0,0,1,.19-.2l.44.4Z" transform="translate(-14.46 -6.33)"/><path class="cls-4" d="M110.22,25.69c.19.07.33.23.18.38s-.26-.08-.36-.19Z" transform="translate(-14.46 -6.33)"/><path class="cls-4" d="M108.19,21.92l-.23-.21c.14-.19.27-.08.4,0A1.54,1.54,0,0,1,108.19,21.92Z" transform="translate(-14.46 -6.33)"/><path class="cls-4" d="M110.5,23.2c.07.09.21.23.19.25-.16.22-.26,0-.37-.07Z" transform="translate(-14.46 -6.33)"/><path class="cls-4" d="M106.62,22.93a1.85,1.85,0,0,1,.23.21c-.14.18-.27.07-.4,0Z" transform="translate(-14.46 -6.33)"/><path class="cls-4" d="M109.4,24.86l.28.27-.18.17-.28-.26Z" transform="translate(-14.46 -6.33)"/><path class="cls-4" d="M109.68,25.13l.27.28c0,.06-.11.11-.17.17l-.28-.28Z" transform="translate(-14.46 -6.33)"/><path class="cls-4" d="M110,25.41l.27.28-.18.19-.26-.3C109.84,25.52,109.9,25.47,110,25.41Z" transform="translate(-14.46 -6.33)"/><path class="cls-4" d="M108.84,27.08c.06.09.2.23.17.26-.16.23-.24,0-.35-.08Z" transform="translate(-14.46 -6.33)"/><path class="cls-4" d="M110.32,23.38c-.09-.11-.31-.19-.08-.35,0,0,.17.11.26.17Z" transform="translate(-14.46 -6.33)"/><path class="cls-4" d="M109.11,24.6l.29.26-.18.18-.3-.25Z" transform="translate(-14.46 -6.33)"/><path class="cls-6" d="M49.05,109.48a12.54,12.54,0,0,1-3.93,2c-.18.06-.38,0-.42-.21s.17-.41.36-.52A13.05,13.05,0,0,1,49.05,109.48Z" transform="translate(-14.46 -6.33)"/><path class="cls-1" d="M49.58,112.14a5,5,0,0,1-2.95,2,4,4,0,0,1,2.88-2Z" transform="translate(-14.46 -6.33)"/><path class="cls-1" d="M49.51,112.08c.06-.21.11-.42.39-.4,0,0,.09.06.09.09,0,.29-.21.32-.41.37Z" transform="translate(-14.46 -6.33)"/><path class="cls-4" d="M99.65,21.63a7.79,7.79,0,0,1,3.74.29c-1.25.45-2.48-.34-3.73,0A.52.52,0,0,1,99.65,21.63Z" transform="translate(-14.46 -6.33)"/><path class="cls-2" d="M98.87,21.3l.23.18Z" transform="translate(-14.46 -6.33)"/><path class="cls-4" d="M101.37,23a3.91,3.91,0,0,1,3,.89Z" transform="translate(-14.46 -6.33)"/></svg>